<?xml version="1.0" encoding="utf-8"?>
<!-- Generator: Adobe Illustrator 28.0.0, SVG Export Plug-In . SVG Version: 6.00 Build 0)  -->
<svg version="1.1" id="Слой_1" xmlns="http://www.w3.org/2000/svg" xmlns:xlink="http://www.w3.org/1999/xlink" x="0px" y="0px"
	 viewBox="0 0 658 658" style="enable-background:new 0 0 658 658;" xml:space="preserve">
<style type="text/css">
	.st0{fill-rule:evenodd;clip-rule:evenodd;fill:url(#SVGID_1_);}
</style>
<linearGradient id="SVGID_1_" gradientUnits="userSpaceOnUse" x1="551.5126" y1="521.3178" x2="447.5126" y2="437.3178" gradientTransform="matrix(1 0 0 -1 0 658)">
	<stop  offset="0" style="stop-color:#3387F1"/>
	<stop  offset="1" style="stop-color:#474D51"/>
</linearGradient>
<path class="st0" d="M415,240.5h59.5l53,156l74.5-216h55.5L555,477.5h-49.5L415,240.5z M252.5,240.5V287H284v140.5h-31.5v50H375v-50
	h-35.5V287H375v-46.5H252.5z M0,476V238.5h124c70.5,5.5,83,87.5,40.5,114c55,40,37.5,121.5-40.5,123.5H0z M50,425.5v-137h68.5
	c23.5,0,22.5,43.5,0,43.5h-27v48.5h27c31,0,24.5,45,0,45H50z"/>
</svg>
